<svg id="Group_516" data-name="Group 516" xmlns="http://www.w3.org/2000/svg" width="23.082" height="20.612" viewBox="0 0 23.082 20.612">
  <g id="noun_online_teaching_1876201" data-name="noun_online teaching_1876201" transform="translate(10.7 0)">
    <g id="Group_72" data-name="Group 72" transform="translate(0)">
      <path id="Path_233" data-name="Path 233" d="M25.72,8.66h.373V9.9c0,.187.249.311.373.187L27.9,8.66h7.964a1.115,1.115,0,0,0,1.12-1.12V3.62a1.115,1.115,0,0,0-1.12-1.12H25.72A1.115,1.115,0,0,0,24.6,3.62V7.54A1.115,1.115,0,0,0,25.72,8.66Zm7.529-3.92a.809.809,0,1,1-.809.809A.75.75,0,0,1,33.249,4.74Zm-2.427,0a.809.809,0,1,1-.809.809A.75.75,0,0,1,30.822,4.74Zm-2.427,0a.809.809,0,1,1-.809.809A.75.75,0,0,1,28.4,4.74Z" transform="translate(-24.6 -2.5)" fill="#1d90d9"/>
    </g>
  </g>
  <path id="Path_234" data-name="Path 234" d="M23.437,18.325h-.526l.028,6.775H5.052V14.387a.332.332,0,0,1,.329-.335h8.134V13.021L5.381,13A1.386,1.386,0,0,0,4,14.387V26.87a1.386,1.386,0,0,0,1.381,1.387H22.61a1.386,1.386,0,0,0,1.381-1.387l-.028-8.545ZM14,27.2a.526.526,0,1,1,.526-.526A.526.526,0,0,1,14,27.2Zm3.683,3.156A1.6,1.6,0,0,1,16.2,29.308h-4.41a1.6,1.6,0,0,1-1.478,1.052.526.526,0,1,0,0,1.052h7.365a.526.526,0,0,0,0-1.052Z" transform="translate(-4 -10.801)" fill="#fff"/>
</svg>
