<svg id="Group_73" data-name="Group 73" xmlns="http://www.w3.org/2000/svg" width="19.983" height="22.665" viewBox="0 0 19.983 22.665">
  <g id="noun_online_teaching_1876201" data-name="noun_online teaching_1876201" transform="translate(12.492 0)">
    <g id="Group_72" data-name="Group 72">
      <path id="icons8-play" d="M8,5v9.534l7.491-4.767Z" transform="translate(-8 -5)" fill="#1d90d9"/>
    </g>
  </g>
  <path id="Path_234" data-name="Path 234" d="M23.364,15.39H22.84l.028,9.664H5.048V14.382a.331.331,0,0,1,.328-.333h9.769V13.02L5.376,13A1.381,1.381,0,0,0,4,14.382V26.818A1.381,1.381,0,0,0,5.376,28.2H22.54a1.381,1.381,0,0,0,1.376-1.382L23.888,15.39ZM13.958,27.151a.524.524,0,1,1,.524-.524A.524.524,0,0,1,13.958,27.151ZM17.627,30.3a1.592,1.592,0,0,1-1.472-1.048H11.762A1.592,1.592,0,0,1,10.289,30.3a.524.524,0,1,0,0,1.048h7.338a.524.524,0,0,0,0-1.048Z" transform="translate(-4 -8.679)" fill="#f7f7f7"/>
  <g id="Group_221" data-name="Group 221" transform="translate(4.848 7.165)">
    <path id="Path_286" data-name="Path 286" d="M6.848,6A1.848,1.848,0,1,0,8.7,7.848,1.848,1.848,0,0,0,6.848,6Z" transform="translate(-5 -6)" fill="#f7f7f7"/>
  </g>
  <g id="Group_222" data-name="Group 222" transform="translate(3 12.092)">
    <path id="Path_287" data-name="Path 287" d="M9.392,16.464H2v-.616C2,14.88,3.677,14,5.7,14s3.7.88,3.7,1.848Z" transform="translate(-2 -14)" fill="#f7f7f7"/>
  </g>
</svg>
